# xmcd
#
# Track frame offsets:
#	150
#	14648
#	29491
#	43947
#	60585
#	80016
#	92954
#	106444
#	120220
#	136239
#	148055
#	163405
#	177148
#
# Disc length: 2563
#
# Revision: 1
# Processed by: cddbd v1.5.1PL0 Copyright (c) Steve Scherf et al.
# Submitted via: dBpowerAMP V4.0
# Normalized: r0:DSETVAR1,TDELIM( - )
#
DISCID=b80a010d
DTITLE=Various Artist - Blues had a baby and it's name was Rock'n roll
DYEAR=2003
DGENRE=Blues
TTITLE0=Big Bill Broonzy - Baby please don't go
TTITLE1=Leadbelly - New Orleans (The rising sun blues)
TTITLE2=Lightning Hopkins - See see rider
TTITLE3=Mississippi Fred McDowell - Keep yours lamps trimmed and burning
TTITLE4=Leadbelly - John Hardy
TTITLE5=Odetta - Gallows pole
TTITLE6=Mississippi Fred McDowell - You got to move
TTITLE7=Leadbelly - Where did you sleep last night
TTITLE8=Mississippi Fred McDowell - Good morning little schoolgirl
TTITLE9=Odetta - Midnight special
TTITLE10=Sonny Terry and Brownie McGhee - Trouble in mind
TTITLE11=Big Bill Broonzy - See see rider
TTITLE12=Woody Guthrie - Going down the road feeling bad
EXTD=
EXTT0=
EXTT1=
EXTT2=
EXTT3=
EXTT4=
EXTT5=
EXTT6=
EXTT7=
EXTT8=
EXTT9=
EXTT10=
EXTT11=
EXTT12=
PLAYORDER=
